<svg xmlns="http://www.w3.org/2000/svg" viewBox="0 0 791 285" width="791" height="285" role="img" aria-label="Great Writer 100 keyboard layout">
  <rect x="2" y="2" width="787" height="281" rx="8" ry="8" fill="#c8c4bf" stroke="#9e9a96" stroke-width="1.5"/>
  <rect x="12" y="267" width="9" height="7" rx="2" fill="#dedad4" stroke="#9e9a96" stroke-width="1"/>  <text x="25" y="275" font-size="6" fill="#6b6560" font-family="Courier Prime,monospace">Fn keys</text>  <rect x="64" y="267" width="9" height="7" rx="2" fill="#e8e4df" stroke="#c0392b" stroke-width="1.2"/>  <text x="77" y="275" font-size="6" fill="#6b6560" font-family="Courier Prime,monospace">Nav / Arrows</text>  <rect x="144" y="267" width="9" height="7" rx="2" fill="#e0dbd5" stroke="#9e9a96" stroke-width="1"/>  <text x="157" y="275" font-size="6" fill="#6b6560" font-family="Courier Prime,monospace">Numpad</text>  <text x="779" y="275" font-size="6" fill="#6b6560" font-family="Courier Prime,monospace" text-anchor="end" letter-spacing="1">GW-100 · COMPACT FULL-SIZE</text>
  <rect x="12" y="12" width="37" height="37" rx="3" ry="3" fill="#cdc8c2" stroke="#6b6560" stroke-width="1.2"/>
  <text x="30" y="33" font-size="6.5" fill="#1a1a1a" font-family="Courier Prime,monospace" font-weight="700" text-anchor="middle">Esc</text>
  <rect x="66" y="12" width="37" height="37" rx="3" ry="3" fill="#dedad4" stroke="#9e9a96" stroke-width="1.2"/>
  <text x="70" y="20" font-size="5" fill="#c0392b" font-family="Courier Prime,monospace" font-weight="700">mute</text>
  <text x="84" y="43" font-size="6.5" fill="#1a1a1a" font-family="Courier Prime,monospace" font-weight="normal" text-anchor="middle">F1</text>
  <rect x="106" y="12" width="37" height="37" rx="3" ry="3" fill="#dedad4" stroke="#9e9a96" stroke-width="1.2"/>
  <text x="110" y="20" font-size="5" fill="#c0392b" font-family="Courier Prime,monospace" font-weight="700">vol−</text>
  <text x="124" y="43" font-size="6.5" fill="#1a1a1a" font-family="Courier Prime,monospace" font-weight="normal" text-anchor="middle">F2</text>
  <rect x="146" y="12" width="37" height="37" rx="3" ry="3" fill="#dedad4" stroke="#9e9a96" stroke-width="1.2"/>
  <text x="150" y="20" font-size="5" fill="#c0392b" font-family="Courier Prime,monospace" font-weight="700">vol+</text>
  <text x="164" y="43" font-size="6.5" fill="#1a1a1a" font-family="Courier Prime,monospace" font-weight="normal" text-anchor="middle">F3</text>
  <rect x="186" y="12" width="37" height="37" rx="3" ry="3" fill="#dedad4" stroke="#9e9a96" stroke-width="1.2"/>
  <text x="190" y="20" font-size="5" fill="#c0392b" font-family="Courier Prime,monospace" font-weight="700">prev</text>
  <text x="204" y="43" font-size="6.5" fill="#1a1a1a" font-family="Courier Prime,monospace" font-weight="normal" text-anchor="middle">F4</text>
  <rect x="240" y="12" width="37" height="37" rx="3" ry="3" fill="#dedad4" stroke="#9e9a96" stroke-width="1.2"/>
  <text x="244" y="20" font-size="5" fill="#c0392b" font-family="Courier Prime,monospace" font-weight="700">play</text>
  <text x="258" y="43" font-size="6.5" fill="#1a1a1a" font-family="Courier Prime,monospace" font-weight="normal" text-anchor="middle">F5</text>
  <rect x="280" y="12" width="37" height="37" rx="3" ry="3" fill="#dedad4" stroke="#9e9a96" stroke-width="1.2"/>
  <text x="284" y="20" font-size="5" fill="#c0392b" font-family="Courier Prime,monospace" font-weight="700">next</text>
  <text x="298" y="43" font-size="6.5" fill="#1a1a1a" font-family="Courier Prime,monospace" font-weight="normal" text-anchor="middle">F6</text>
  <rect x="320" y="12" width="37" height="37" rx="3" ry="3" fill="#dedad4" stroke="#9e9a96" stroke-width="1.2"/>
  <text x="324" y="20" font-size="5" fill="#c0392b" font-family="Courier Prime,monospace" font-weight="700">brt−</text>
  <text x="338" y="43" font-size="6.5" fill="#1a1a1a" font-family="Courier Prime,monospace" font-weight="normal" text-anchor="middle">F7</text>
  <rect x="360" y="12" width="37" height="37" rx="3" ry="3" fill="#dedad4" stroke="#9e9a96" stroke-width="1.2"/>
  <text x="364" y="20" font-size="5" fill="#c0392b" font-family="Courier Prime,monospace" font-weight="700">brt+</text>
  <text x="378" y="43" font-size="6.5" fill="#1a1a1a" font-family="Courier Prime,monospace" font-weight="normal" text-anchor="middle">F8</text>
  <rect x="414" y="12" width="37" height="37" rx="3" ry="3" fill="#dedad4" stroke="#9e9a96" stroke-width="1.2"/>
  <text x="418" y="20" font-size="5" fill="#c0392b" font-family="Courier Prime,monospace" font-weight="700">disp</text>
  <text x="432" y="43" font-size="6.5" fill="#1a1a1a" font-family="Courier Prime,monospace" font-weight="normal" text-anchor="middle">F9</text>
  <rect x="454" y="12" width="37" height="37" rx="3" ry="3" fill="#dedad4" stroke="#9e9a96" stroke-width="1.2"/>
  <text x="458" y="20" font-size="5" fill="#c0392b" font-family="Courier Prime,monospace" font-weight="700">task</text>
  <text x="472" y="43" font-size="6.5" fill="#1a1a1a" font-family="Courier Prime,monospace" font-weight="normal" text-anchor="middle">F10</text>
  <rect x="494" y="12" width="37" height="37" rx="3" ry="3" fill="#dedad4" stroke="#9e9a96" stroke-width="1.2"/>
  <text x="498" y="20" font-size="5" fill="#c0392b" font-family="Courier Prime,monospace" font-weight="700">file</text>
  <text x="512" y="43" font-size="6.5" fill="#1a1a1a" font-family="Courier Prime,monospace" font-weight="normal" text-anchor="middle">F11</text>
  <rect x="534" y="12" width="37" height="37" rx="3" ry="3" fill="#dedad4" stroke="#9e9a96" stroke-width="1.2"/>
  <text x="538" y="20" font-size="5" fill="#c0392b" font-family="Courier Prime,monospace" font-weight="700">desk</text>
  <text x="552" y="43" font-size="6.5" fill="#1a1a1a" font-family="Courier Prime,monospace" font-weight="normal" text-anchor="middle">F12</text>
  <rect x="571" y="12" width="49" height="37" rx="3" ry="3" fill="#cdc8c2" stroke="#6b6560" stroke-width="1.2"/>
  <text x="595" y="33" font-size="5" fill="#1a1a1a" font-family="Courier Prime,monospace" font-weight="700" text-anchor="middle">PrtSc</text>
  <rect x="623" y="12" width="49" height="37" rx="3" ry="3" fill="#cdc8c2" stroke="#6b6560" stroke-width="1.2"/>
  <text x="647" y="33" font-size="5" fill="#1a1a1a" font-family="Courier Prime,monospace" font-weight="700" text-anchor="middle">ScrLk</text>
  <rect x="675" y="12" width="49" height="37" rx="3" ry="3" fill="#cdc8c2" stroke="#6b6560" stroke-width="1.2"/>
  <text x="699" y="33" font-size="5" fill="#1a1a1a" font-family="Courier Prime,monospace" font-weight="700" text-anchor="middle">Pause</text>
  <rect x="727" y="12" width="52" height="37" rx="3" ry="3" fill="#cdc8c2" stroke="#6b6560" stroke-width="1.2"/>
  <text x="753" y="33" font-size="5" fill="#1a1a1a" font-family="Courier Prime,monospace" font-weight="700" text-anchor="middle">Del</text>
  <rect x="12" y="53" width="37" height="37" rx="3" ry="3" fill="#f0ede8" stroke="#9e9a96" stroke-width="1.2"/>
  <text x="30" y="74" font-size="7" fill="#1a1a1a" font-family="Courier Prime,monospace" font-weight="normal" text-anchor="middle">`</text>
  <rect x="52" y="53" width="37" height="37" rx="3" ry="3" fill="#f0ede8" stroke="#9e9a96" stroke-width="1.2"/>
  <text x="70" y="74" font-size="7" fill="#1a1a1a" font-family="Courier Prime,monospace" font-weight="normal" text-anchor="middle">1</text>
  <rect x="92" y="53" width="37" height="37" rx="3" ry="3" fill="#f0ede8" stroke="#9e9a96" stroke-width="1.2"/>
  <text x="110" y="74" font-size="7" fill="#1a1a1a" font-family="Courier Prime,monospace" font-weight="normal" text-anchor="middle">2</text>
  <rect x="132" y="53" width="37" height="37" rx="3" ry="3" fill="#f0ede8" stroke="#9e9a96" stroke-width="1.2"/>
  <text x="150" y="74" font-size="7" fill="#1a1a1a" font-family="Courier Prime,monospace" font-weight="normal" text-anchor="middle">3</text>
  <rect x="172" y="53" width="37" height="37" rx="3" ry="3" fill="#f0ede8" stroke="#9e9a96" stroke-width="1.2"/>
  <text x="190" y="74" font-size="7" fill="#1a1a1a" font-family="Courier Prime,monospace" font-weight="normal" text-anchor="middle">4</text>
  <rect x="212" y="53" width="37" height="37" rx="3" ry="3" fill="#f0ede8" stroke="#9e9a96" stroke-width="1.2"/>
  <text x="230" y="74" font-size="7" fill="#1a1a1a" font-family="Courier Prime,monospace" font-weight="normal" text-anchor="middle">5</text>
  <rect x="252" y="53" width="37" height="37" rx="3" ry="3" fill="#f0ede8" stroke="#9e9a96" stroke-width="1.2"/>
  <text x="270" y="74" font-size="7" fill="#1a1a1a" font-family="Courier Prime,monospace" font-weight="normal" text-anchor="middle">6</text>
  <rect x="292" y="53" width="37" height="37" rx="3" ry="3" fill="#f0ede8" stroke="#9e9a96" stroke-width="1.2"/>
  <text x="310" y="74" font-size="7" fill="#1a1a1a" font-family="Courier Prime,monospace" font-weight="normal" text-anchor="middle">7</text>
  <rect x="332" y="53" width="37" height="37" rx="3" ry="3" fill="#f0ede8" stroke="#9e9a96" stroke-width="1.2"/>
  <text x="350" y="74" font-size="7" fill="#1a1a1a" font-family="Courier Prime,monospace" font-weight="normal" text-anchor="middle">8</text>
  <rect x="372" y="53" width="37" height="37" rx="3" ry="3" fill="#f0ede8" stroke="#9e9a96" stroke-width="1.2"/>
  <text x="390" y="74" font-size="7" fill="#1a1a1a" font-family="Courier Prime,monospace" font-weight="normal" text-anchor="middle">9</text>
  <rect x="412" y="53" width="37" height="37" rx="3" ry="3" fill="#f0ede8" stroke="#9e9a96" stroke-width="1.2"/>
  <text x="430" y="74" font-size="7" fill="#1a1a1a" font-family="Courier Prime,monospace" font-weight="normal" text-anchor="middle">0</text>
  <rect x="452" y="53" width="37" height="37" rx="3" ry="3" fill="#f0ede8" stroke="#9e9a96" stroke-width="1.2"/>
  <text x="470" y="74" font-size="7" fill="#1a1a1a" font-family="Courier Prime,monospace" font-weight="normal" text-anchor="middle">−</text>
  <rect x="492" y="53" width="37" height="37" rx="3" ry="3" fill="#f0ede8" stroke="#9e9a96" stroke-width="1.2"/>
  <text x="510" y="74" font-size="7" fill="#1a1a1a" font-family="Courier Prime,monospace" font-weight="normal" text-anchor="middle">=</text>
  <rect x="529" y="53" width="40" height="37" rx="3" ry="3" fill="#d4cfc9" stroke="#9e9a96" stroke-width="1.2"/>
  <text x="549" y="74" font-size="6.5" fill="#1a1a1a" font-family="Courier Prime,monospace" font-weight="700" text-anchor="middle">Bksp</text>
  <rect x="577" y="53" width="37" height="37" rx="3" ry="3" fill="#e8e4df" stroke="#c0392b" stroke-width="1.2"/>
  <text x="595" y="74" font-size="6" fill="#1a1a1a" font-family="Courier Prime,monospace" font-weight="700" text-anchor="middle">Ins</text>
  <rect x="622" y="53" width="37" height="37" rx="3" ry="3" fill="#cdc8c2" stroke="#6b6560" stroke-width="1.2"/>
  <text x="640" y="74" font-size="5.5" fill="#1a1a1a" font-family="Courier Prime,monospace" font-weight="700" text-anchor="middle">Num</text>
  <rect x="662" y="53" width="37" height="37" rx="3" ry="3" fill="#d4cfc9" stroke="#9e9a96" stroke-width="1.2"/>
  <text x="680" y="74" font-size="8" fill="#1a1a1a" font-family="Courier Prime,monospace" font-weight="700" text-anchor="middle">/</text>
  <rect x="702" y="53" width="37" height="37" rx="3" ry="3" fill="#d4cfc9" stroke="#9e9a96" stroke-width="1.2"/>
  <text x="720" y="74" font-size="8" fill="#1a1a1a" font-family="Courier Prime,monospace" font-weight="700" text-anchor="middle">*</text>
  <rect x="742" y="53" width="37" height="37" rx="3" ry="3" fill="#d4cfc9" stroke="#9e9a96" stroke-width="1.2"/>
  <text x="760" y="74" font-size="9" fill="#1a1a1a" font-family="Courier Prime,monospace" font-weight="700" text-anchor="middle">−</text>
  <rect x="12" y="94" width="57" height="37" rx="3" ry="3" fill="#d4cfc9" stroke="#9e9a96" stroke-width="1.2"/>
  <text x="40" y="115" font-size="7" fill="#1a1a1a" font-family="Courier Prime,monospace" font-weight="700" text-anchor="middle">Tab</text>
  <rect x="72" y="94" width="37" height="37" rx="3" ry="3" fill="#f0ede8" stroke="#9e9a96" stroke-width="1.2"/>
  <text x="90" y="115" font-size="7" fill="#1a1a1a" font-family="Courier Prime,monospace" font-weight="normal" text-anchor="middle">Q</text>
  <rect x="112" y="94" width="37" height="37" rx="3" ry="3" fill="#f0ede8" stroke="#9e9a96" stroke-width="1.2"/>
  <text x="130" y="115" font-size="7" fill="#1a1a1a" font-family="Courier Prime,monospace" font-weight="normal" text-anchor="middle">W</text>
  <rect x="152" y="94" width="37" height="37" rx="3" ry="3" fill="#f0ede8" stroke="#9e9a96" stroke-width="1.2"/>
  <text x="170" y="115" font-size="7" fill="#1a1a1a" font-family="Courier Prime,monospace" font-weight="normal" text-anchor="middle">E</text>
  <rect x="192" y="94" width="37" height="37" rx="3" ry="3" fill="#f0ede8" stroke="#9e9a96" stroke-width="1.2"/>
  <text x="210" y="115" font-size="7" fill="#1a1a1a" font-family="Courier Prime,monospace" font-weight="normal" text-anchor="middle">R</text>
  <rect x="232" y="94" width="37" height="37" rx="3" ry="3" fill="#f0ede8" stroke="#9e9a96" stroke-width="1.2"/>
  <text x="250" y="115" font-size="7" fill="#1a1a1a" font-family="Courier Prime,monospace" font-weight="normal" text-anchor="middle">T</text>
  <rect x="272" y="94" width="37" height="37" rx="3" ry="3" fill="#f0ede8" stroke="#9e9a96" stroke-width="1.2"/>
  <text x="290" y="115" font-size="7" fill="#1a1a1a" font-family="Courier Prime,monospace" font-weight="normal" text-anchor="middle">Y</text>
  <rect x="312" y="94" width="37" height="37" rx="3" ry="3" fill="#f0ede8" stroke="#9e9a96" stroke-width="1.2"/>
  <text x="330" y="115" font-size="7" fill="#1a1a1a" font-family="Courier Prime,monospace" font-weight="normal" text-anchor="middle">U</text>
  <rect x="352" y="94" width="37" height="37" rx="3" ry="3" fill="#f0ede8" stroke="#9e9a96" stroke-width="1.2"/>
  <text x="370" y="115" font-size="7" fill="#1a1a1a" font-family="Courier Prime,monospace" font-weight="normal" text-anchor="middle">I</text>
  <rect x="392" y="94" width="37" height="37" rx="3" ry="3" fill="#f0ede8" stroke="#9e9a96" stroke-width="1.2"/>
  <text x="410" y="115" font-size="7" fill="#1a1a1a" font-family="Courier Prime,monospace" font-weight="normal" text-anchor="middle">O</text>
  <rect x="432" y="94" width="37" height="37" rx="3" ry="3" fill="#f0ede8" stroke="#9e9a96" stroke-width="1.2"/>
  <text x="450" y="115" font-size="7" fill="#1a1a1a" font-family="Courier Prime,monospace" font-weight="normal" text-anchor="middle">P</text>
  <rect x="472" y="94" width="37" height="37" rx="3" ry="3" fill="#f0ede8" stroke="#9e9a96" stroke-width="1.2"/>
  <text x="490" y="115" font-size="7" fill="#1a1a1a" font-family="Courier Prime,monospace" font-weight="normal" text-anchor="middle">[</text>
  <rect x="512" y="94" width="37" height="37" rx="3" ry="3" fill="#f0ede8" stroke="#9e9a96" stroke-width="1.2"/>
  <text x="530" y="115" font-size="7" fill="#1a1a1a" font-family="Courier Prime,monospace" font-weight="normal" text-anchor="middle">]</text>
  <rect x="549" y="94" width="20" height="37" rx="3" ry="3" fill="#f0ede8" stroke="#9e9a96" stroke-width="1.2"/>
  <text x="559" y="115" font-size="6.5" fill="#1a1a1a" font-family="Courier Prime,monospace" font-weight="normal" text-anchor="middle">\|</text>
  <rect x="577" y="94" width="37" height="37" rx="3" ry="3" fill="#e8e4df" stroke="#c0392b" stroke-width="1.2"/>
  <text x="595" y="115" font-size="5.5" fill="#1a1a1a" font-family="Courier Prime,monospace" font-weight="700" text-anchor="middle">Home</text>
  <rect x="622" y="94" width="37" height="37" rx="3" ry="3" fill="#e0dbd5" stroke="#9e9a96" stroke-width="1.2"/>
  <text x="640" y="115" font-size="7" fill="#1a1a1a" font-family="Courier Prime,monospace" font-weight="normal" text-anchor="middle">7</text>
  <rect x="662" y="94" width="37" height="37" rx="3" ry="3" fill="#e0dbd5" stroke="#9e9a96" stroke-width="1.2"/>
  <text x="680" y="115" font-size="7" fill="#1a1a1a" font-family="Courier Prime,monospace" font-weight="normal" text-anchor="middle">8</text>
  <rect x="702" y="94" width="37" height="37" rx="3" ry="3" fill="#e0dbd5" stroke="#9e9a96" stroke-width="1.2"/>
  <text x="720" y="115" font-size="7" fill="#1a1a1a" font-family="Courier Prime,monospace" font-weight="normal" text-anchor="middle">9</text>
  <rect x="742" y="94" width="37" height="77" rx="3" ry="3" fill="#d4cfc9" stroke="#9e9a96" stroke-width="1.2"/>
  <text x="760" y="136" font-size="11" fill="#1a1a1a" font-family="Courier Prime,monospace" font-weight="700" text-anchor="middle">+</text>
  <rect x="12" y="135" width="67" height="37" rx="3" ry="3" fill="#d4cfc9" stroke="#9e9a96" stroke-width="1.2"/>
  <text x="45" y="156" font-size="6.5" fill="#1a1a1a" font-family="Courier Prime,monospace" font-weight="700" text-anchor="middle">Caps</text>
  <rect x="82" y="135" width="37" height="37" rx="3" ry="3" fill="#f0ede8" stroke="#9e9a96" stroke-width="1.2"/>
  <text x="100" y="156" font-size="7" fill="#1a1a1a" font-family="Courier Prime,monospace" font-weight="normal" text-anchor="middle">A</text>
  <rect x="122" y="135" width="37" height="37" rx="3" ry="3" fill="#f0ede8" stroke="#9e9a96" stroke-width="1.2"/>
  <text x="140" y="156" font-size="7" fill="#1a1a1a" font-family="Courier Prime,monospace" font-weight="normal" text-anchor="middle">S</text>
  <rect x="162" y="135" width="37" height="37" rx="3" ry="3" fill="#f0ede8" stroke="#9e9a96" stroke-width="1.2"/>
  <text x="180" y="156" font-size="7" fill="#1a1a1a" font-family="Courier Prime,monospace" font-weight="normal" text-anchor="middle">D</text>
  <rect x="202" y="135" width="37" height="37" rx="3" ry="3" fill="#f0ede8" stroke="#9e9a96" stroke-width="1.2"/>
  <text x="220" y="156" font-size="7" fill="#1a1a1a" font-family="Courier Prime,monospace" font-weight="normal" text-anchor="middle">F</text>
  <rect x="242" y="135" width="37" height="37" rx="3" ry="3" fill="#f0ede8" stroke="#9e9a96" stroke-width="1.2"/>
  <text x="260" y="156" font-size="7" fill="#1a1a1a" font-family="Courier Prime,monospace" font-weight="normal" text-anchor="middle">G</text>
  <rect x="282" y="135" width="37" height="37" rx="3" ry="3" fill="#f0ede8" stroke="#9e9a96" stroke-width="1.2"/>
  <text x="300" y="156" font-size="7" fill="#1a1a1a" font-family="Courier Prime,monospace" font-weight="normal" text-anchor="middle">H</text>
  <rect x="322" y="135" width="37" height="37" rx="3" ry="3" fill="#f0ede8" stroke="#9e9a96" stroke-width="1.2"/>
  <text x="340" y="156" font-size="7" fill="#1a1a1a" font-family="Courier Prime,monospace" font-weight="normal" text-anchor="middle">J</text>
  <rect x="362" y="135" width="37" height="37" rx="3" ry="3" fill="#f0ede8" stroke="#9e9a96" stroke-width="1.2"/>
  <text x="380" y="156" font-size="7" fill="#1a1a1a" font-family="Courier Prime,monospace" font-weight="normal" text-anchor="middle">K</text>
  <rect x="402" y="135" width="37" height="37" rx="3" ry="3" fill="#f0ede8" stroke="#9e9a96" stroke-width="1.2"/>
  <text x="420" y="156" font-size="7" fill="#1a1a1a" font-family="Courier Prime,monospace" font-weight="normal" text-anchor="middle">L</text>
  <rect x="442" y="135" width="37" height="37" rx="3" ry="3" fill="#f0ede8" stroke="#9e9a96" stroke-width="1.2"/>
  <text x="460" y="156" font-size="7" fill="#1a1a1a" font-family="Courier Prime,monospace" font-weight="normal" text-anchor="middle">;</text>
  <rect x="482" y="135" width="37" height="37" rx="3" ry="3" fill="#f0ede8" stroke="#9e9a96" stroke-width="1.2"/>
  <text x="500" y="156" font-size="7" fill="#1a1a1a" font-family="Courier Prime,monospace" font-weight="normal" text-anchor="middle">'</text>
  <rect x="519" y="135" width="50" height="37" rx="3" ry="3" fill="#d4cfc9" stroke="#9e9a96" stroke-width="1.2"/>
  <text x="544" y="156" font-size="7" fill="#1a1a1a" font-family="Courier Prime,monospace" font-weight="700" text-anchor="middle">Enter</text>
  <rect x="577" y="135" width="37" height="37" rx="3" ry="3" fill="#e8e4df" stroke="#c0392b" stroke-width="1.2"/>
  <text x="595" y="156" font-size="6" fill="#1a1a1a" font-family="Courier Prime,monospace" font-weight="700" text-anchor="middle">End</text>
  <rect x="622" y="135" width="37" height="37" rx="3" ry="3" fill="#e0dbd5" stroke="#9e9a96" stroke-width="1.2"/>
  <text x="640" y="156" font-size="7" fill="#1a1a1a" font-family="Courier Prime,monospace" font-weight="normal" text-anchor="middle">4</text>
  <rect x="662" y="135" width="37" height="37" rx="3" ry="3" fill="#e0dbd5" stroke="#9e9a96" stroke-width="1.2"/>
  <text x="680" y="156" font-size="7" fill="#1a1a1a" font-family="Courier Prime,monospace" font-weight="normal" text-anchor="middle">5</text>
  <rect x="702" y="135" width="37" height="37" rx="3" ry="3" fill="#e0dbd5" stroke="#9e9a96" stroke-width="1.2"/>
  <text x="720" y="156" font-size="7" fill="#1a1a1a" font-family="Courier Prime,monospace" font-weight="normal" text-anchor="middle">6</text>
  <rect x="12" y="176" width="87" height="37" rx="3" ry="3" fill="#d4cfc9" stroke="#9e9a96" stroke-width="1.2"/>
  <text x="55" y="197" font-size="7" fill="#1a1a1a" font-family="Courier Prime,monospace" font-weight="700" text-anchor="middle">⇧ Shift</text>
  <rect x="102" y="176" width="37" height="37" rx="3" ry="3" fill="#f0ede8" stroke="#9e9a96" stroke-width="1.2"/>
  <text x="120" y="197" font-size="7" fill="#1a1a1a" font-family="Courier Prime,monospace" font-weight="normal" text-anchor="middle">Z</text>
  <rect x="142" y="176" width="37" height="37" rx="3" ry="3" fill="#f0ede8" stroke="#9e9a96" stroke-width="1.2"/>
  <text x="160" y="197" font-size="7" fill="#1a1a1a" font-family="Courier Prime,monospace" font-weight="normal" text-anchor="middle">X</text>
  <rect x="182" y="176" width="37" height="37" rx="3" ry="3" fill="#f0ede8" stroke="#9e9a96" stroke-width="1.2"/>
  <text x="200" y="197" font-size="7" fill="#1a1a1a" font-family="Courier Prime,monospace" font-weight="normal" text-anchor="middle">C</text>
  <rect x="222" y="176" width="37" height="37" rx="3" ry="3" fill="#f0ede8" stroke="#9e9a96" stroke-width="1.2"/>
  <text x="240" y="197" font-size="7" fill="#1a1a1a" font-family="Courier Prime,monospace" font-weight="normal" text-anchor="middle">V</text>
  <rect x="262" y="176" width="37" height="37" rx="3" ry="3" fill="#f0ede8" stroke="#9e9a96" stroke-width="1.2"/>
  <text x="280" y="197" font-size="7" fill="#1a1a1a" font-family="Courier Prime,monospace" font-weight="normal" text-anchor="middle">B</text>
  <rect x="302" y="176" width="37" height="37" rx="3" ry="3" fill="#f0ede8" stroke="#9e9a96" stroke-width="1.2"/>
  <text x="320" y="197" font-size="7" fill="#1a1a1a" font-family="Courier Prime,monospace" font-weight="normal" text-anchor="middle">N</text>
  <rect x="342" y="176" width="37" height="37" rx="3" ry="3" fill="#f0ede8" stroke="#9e9a96" stroke-width="1.2"/>
  <text x="360" y="197" font-size="7" fill="#1a1a1a" font-family="Courier Prime,monospace" font-weight="normal" text-anchor="middle">M</text>
  <rect x="382" y="176" width="37" height="37" rx="3" ry="3" fill="#f0ede8" stroke="#9e9a96" stroke-width="1.2"/>
  <text x="400" y="197" font-size="7" fill="#1a1a1a" font-family="Courier Prime,monospace" font-weight="normal" text-anchor="middle">,</text>
  <rect x="422" y="176" width="37" height="37" rx="3" ry="3" fill="#f0ede8" stroke="#9e9a96" stroke-width="1.2"/>
  <text x="440" y="197" font-size="7" fill="#1a1a1a" font-family="Courier Prime,monospace" font-weight="normal" text-anchor="middle">.</text>
  <rect x="462" y="176" width="37" height="37" rx="3" ry="3" fill="#f0ede8" stroke="#9e9a96" stroke-width="1.2"/>
  <text x="480" y="197" font-size="7" fill="#1a1a1a" font-family="Courier Prime,monospace" font-weight="normal" text-anchor="middle">/</text>
  <rect x="499" y="176" width="70" height="37" rx="3" ry="3" fill="#d4cfc9" stroke="#9e9a96" stroke-width="1.2"/>
  <text x="534" y="197" font-size="7" fill="#1a1a1a" font-family="Courier Prime,monospace" font-weight="700" text-anchor="middle">⇧ Shift</text>
  <rect x="577" y="176" width="37" height="37" rx="3" ry="3" fill="#e8e4df" stroke="#c0392b" stroke-width="1.2"/>
  <text x="595" y="197" font-size="13" fill="#1a1a1a" font-family="Courier Prime,monospace" font-weight="700" text-anchor="middle">↑</text>
  <rect x="622" y="176" width="37" height="37" rx="3" ry="3" fill="#e0dbd5" stroke="#9e9a96" stroke-width="1.2"/>
  <text x="640" y="197" font-size="7" fill="#1a1a1a" font-family="Courier Prime,monospace" font-weight="normal" text-anchor="middle">1</text>
  <rect x="662" y="176" width="37" height="37" rx="3" ry="3" fill="#e0dbd5" stroke="#9e9a96" stroke-width="1.2"/>
  <text x="680" y="197" font-size="7" fill="#1a1a1a" font-family="Courier Prime,monospace" font-weight="normal" text-anchor="middle">2</text>
  <rect x="702" y="176" width="37" height="37" rx="3" ry="3" fill="#e0dbd5" stroke="#9e9a96" stroke-width="1.2"/>
  <text x="720" y="197" font-size="7" fill="#1a1a1a" font-family="Courier Prime,monospace" font-weight="normal" text-anchor="middle">3</text>
  <rect x="742" y="176" width="37" height="77" rx="3" ry="3" fill="#d4cfc9" stroke="#9e9a96" stroke-width="1.2"/>
  <text x="760" y="218" font-size="7" fill="#1a1a1a" font-family="Courier Prime,monospace" font-weight="700" text-anchor="middle">Ent</text>
  <rect x="12" y="217" width="47" height="37" rx="3" ry="3" fill="#d4cfc9" stroke="#9e9a96" stroke-width="1.2"/>
  <text x="35" y="238" font-size="6.5" fill="#1a1a1a" font-family="Courier Prime,monospace" font-weight="700" text-anchor="middle">Ctrl</text>
  <rect x="62" y="217" width="47" height="37" rx="3" ry="3" fill="#d4cfc9" stroke="#9e9a96" stroke-width="1.2"/>
  <text x="85" y="238" font-size="6.5" fill="#1a1a1a" font-family="Courier Prime,monospace" font-weight="700" text-anchor="middle">Win</text>
  <rect x="112" y="217" width="47" height="37" rx="3" ry="3" fill="#d4cfc9" stroke="#9e9a96" stroke-width="1.2"/>
  <text x="135" y="238" font-size="6.5" fill="#1a1a1a" font-family="Courier Prime,monospace" font-weight="700" text-anchor="middle">Alt</text>
  <rect x="162" y="217" width="257" height="37" rx="3" ry="3" fill="#ebe8e3" stroke="#9e9a96" stroke-width="1.2"/>
  <text x="290" y="238" font-size="7" fill="#1a1a1a" font-family="Courier Prime,monospace" font-weight="normal" text-anchor="middle"></text>
  <rect x="422" y="217" width="47" height="37" rx="3" ry="3" fill="#d4cfc9" stroke="#9e9a96" stroke-width="1.2"/>
  <text x="445" y="238" font-size="6.5" fill="#1a1a1a" font-family="Courier Prime,monospace" font-weight="700" text-anchor="middle">Alt</text>
  <rect x="472" y="217" width="47" height="37" rx="3" ry="3" fill="#cdc8c2" stroke="#6b6560" stroke-width="1.2"/>
  <text x="495" y="238" font-size="6.5" fill="#1a1a1a" font-family="Courier Prime,monospace" font-weight="700" text-anchor="middle">Fn</text>
  <rect x="522" y="217" width="47" height="37" rx="3" ry="3" fill="#d4cfc9" stroke="#9e9a96" stroke-width="1.2"/>
  <text x="545" y="238" font-size="6.5" fill="#1a1a1a" font-family="Courier Prime,monospace" font-weight="700" text-anchor="middle">Ctrl</text>
  <rect x="577" y="217" width="37" height="37" rx="3" ry="3" fill="#e8e4df" stroke="#c0392b" stroke-width="1.2"/>
  <text x="595" y="238" font-size="12" fill="#1a1a1a" font-family="Courier Prime,monospace" font-weight="700" text-anchor="middle">←</text>
  <rect x="622" y="217" width="37" height="37" rx="3" ry="3" fill="#e8e4df" stroke="#c0392b" stroke-width="1.2"/>
  <text x="640" y="238" font-size="12" fill="#1a1a1a" font-family="Courier Prime,monospace" font-weight="700" text-anchor="middle">↓</text>
  <rect x="662" y="217" width="37" height="37" rx="3" ry="3" fill="#e8e4df" stroke="#c0392b" stroke-width="1.2"/>
  <text x="680" y="238" font-size="12" fill="#1a1a1a" font-family="Courier Prime,monospace" font-weight="700" text-anchor="middle">→</text>
  <rect x="702" y="217" width="77" height="37" rx="3" ry="3" fill="#e0dbd5" stroke="#9e9a96" stroke-width="1.2"/>
  <text x="740" y="238" font-size="9" fill="#1a1a1a" font-family="Courier Prime,monospace" font-weight="normal" text-anchor="middle">0</text>
</svg>