<svg xmlns="http://www.w3.org/2000/svg" viewBox="0 0 775 313" width="775" height="313" role="img" aria-label="Great Writer 75 keyboard layout">
  <rect x="2" y="2" width="771" height="309" rx="8" ry="8" fill="#c8c4bf" stroke="#9e9a96" stroke-width="1.5"/>
  <!-- Legend -->
  <rect x="14" y="295" width="10" height="8" rx="2" fill="#dedad4" stroke="#9e9a96" stroke-width="1"/>
  <text x="28" y="302" font-size="7" fill="#6b6560" font-family="Courier Prime,monospace">FN row</text>
  <rect x="72" y="295" width="10" height="8" rx="2" fill="#e8e4df" stroke="#c0392b" stroke-width="1.2"/>
  <text x="86" y="302" font-size="7" fill="#6b6560" font-family="Courier Prime,monospace">Arrow / Nav</text>
  <rect x="156" y="295" width="10" height="8" rx="2" fill="#cdc8c2" stroke="#6b6560" stroke-width="1"/>
  <text x="170" y="302" font-size="7" fill="#6b6560" font-family="Courier Prime,monospace">Special</text>
  <text x="761" y="302" font-size="7" fill="#6b6560" font-family="Courier Prime,monospace" text-anchor="end" letter-spacing="1">GW-75 · 75% · 84 KEYS</text>
  <rect x="14" y="14" width="47" height="44" rx="4" ry="4" fill="#cdc8c2" stroke="#6b6560" stroke-width="1.2"/>
  <text x="37" y="39" font-size="8" fill="#1a1a1a" font-family="Courier Prime,monospace" font-weight="700" text-anchor="middle">Esc</text>
  <rect x="84" y="14" width="47" height="44" rx="4" ry="4" fill="#dedad4" stroke="#9e9a96" stroke-width="1.2"/>
  <text x="88" y="22" font-size="6.5" fill="#c0392b" font-family="Courier Prime,monospace" font-weight="700">mute</text>
  <text x="107" y="51" font-size="8" fill="#1a1a1a" font-family="Courier Prime,monospace" font-weight="normal" text-anchor="middle">F1</text>
  <rect x="134" y="14" width="47" height="44" rx="4" ry="4" fill="#dedad4" stroke="#9e9a96" stroke-width="1.2"/>
  <text x="138" y="22" font-size="6.5" fill="#c0392b" font-family="Courier Prime,monospace" font-weight="700">vol−</text>
  <text x="157" y="51" font-size="8" fill="#1a1a1a" font-family="Courier Prime,monospace" font-weight="normal" text-anchor="middle">F2</text>
  <rect x="184" y="14" width="47" height="44" rx="4" ry="4" fill="#dedad4" stroke="#9e9a96" stroke-width="1.2"/>
  <text x="188" y="22" font-size="6.5" fill="#c0392b" font-family="Courier Prime,monospace" font-weight="700">vol+</text>
  <text x="207" y="51" font-size="8" fill="#1a1a1a" font-family="Courier Prime,monospace" font-weight="normal" text-anchor="middle">F3</text>
  <rect x="234" y="14" width="47" height="44" rx="4" ry="4" fill="#dedad4" stroke="#9e9a96" stroke-width="1.2"/>
  <text x="238" y="22" font-size="6.5" fill="#c0392b" font-family="Courier Prime,monospace" font-weight="700">disp</text>
  <text x="257" y="51" font-size="8" fill="#1a1a1a" font-family="Courier Prime,monospace" font-weight="normal" text-anchor="middle">F4</text>
  <rect x="304" y="14" width="47" height="44" rx="4" ry="4" fill="#dedad4" stroke="#9e9a96" stroke-width="1.2"/>
  <text x="308" y="22" font-size="6.5" fill="#c0392b" font-family="Courier Prime,monospace" font-weight="700">prev</text>
  <text x="327" y="51" font-size="8" fill="#1a1a1a" font-family="Courier Prime,monospace" font-weight="normal" text-anchor="middle">F5</text>
  <rect x="354" y="14" width="47" height="44" rx="4" ry="4" fill="#dedad4" stroke="#9e9a96" stroke-width="1.2"/>
  <text x="358" y="22" font-size="6.5" fill="#c0392b" font-family="Courier Prime,monospace" font-weight="700">play</text>
  <text x="377" y="51" font-size="8" fill="#1a1a1a" font-family="Courier Prime,monospace" font-weight="normal" text-anchor="middle">F6</text>
  <rect x="404" y="14" width="47" height="44" rx="4" ry="4" fill="#dedad4" stroke="#9e9a96" stroke-width="1.2"/>
  <text x="408" y="22" font-size="6.5" fill="#c0392b" font-family="Courier Prime,monospace" font-weight="700">next</text>
  <text x="427" y="51" font-size="8" fill="#1a1a1a" font-family="Courier Prime,monospace" font-weight="normal" text-anchor="middle">F7</text>
  <rect x="454" y="14" width="47" height="44" rx="4" ry="4" fill="#dedad4" stroke="#9e9a96" stroke-width="1.2"/>
  <text x="458" y="22" font-size="6.5" fill="#c0392b" font-family="Courier Prime,monospace" font-weight="700">task</text>
  <text x="477" y="51" font-size="8" fill="#1a1a1a" font-family="Courier Prime,monospace" font-weight="normal" text-anchor="middle">F8</text>
  <rect x="524" y="14" width="47" height="44" rx="4" ry="4" fill="#dedad4" stroke="#9e9a96" stroke-width="1.2"/>
  <text x="528" y="22" font-size="6.5" fill="#c0392b" font-family="Courier Prime,monospace" font-weight="700">file</text>
  <text x="547" y="51" font-size="8" fill="#1a1a1a" font-family="Courier Prime,monospace" font-weight="normal" text-anchor="middle">F9</text>
  <rect x="574" y="14" width="47" height="44" rx="4" ry="4" fill="#dedad4" stroke="#9e9a96" stroke-width="1.2"/>
  <text x="578" y="22" font-size="6.5" fill="#c0392b" font-family="Courier Prime,monospace" font-weight="700">calc</text>
  <text x="597" y="51" font-size="8" fill="#1a1a1a" font-family="Courier Prime,monospace" font-weight="normal" text-anchor="middle">F10</text>
  <rect x="624" y="14" width="47" height="44" rx="4" ry="4" fill="#dedad4" stroke="#9e9a96" stroke-width="1.2"/>
  <text x="628" y="22" font-size="6.5" fill="#c0392b" font-family="Courier Prime,monospace" font-weight="700">mail</text>
  <text x="647" y="51" font-size="8" fill="#1a1a1a" font-family="Courier Prime,monospace" font-weight="normal" text-anchor="middle">F11</text>
  <rect x="674" y="14" width="47" height="44" rx="4" ry="4" fill="#dedad4" stroke="#9e9a96" stroke-width="1.2"/>
  <text x="678" y="22" font-size="6.5" fill="#c0392b" font-family="Courier Prime,monospace" font-weight="700">desk</text>
  <text x="697" y="51" font-size="8" fill="#1a1a1a" font-family="Courier Prime,monospace" font-weight="normal" text-anchor="middle">F12</text>
  <rect x="721" y="14" width="40" height="44" rx="4" ry="4" fill="#cdc8c2" stroke="#6b6560" stroke-width="1.2"/>
  <text x="741" y="39" font-size="8" fill="#1a1a1a" font-family="Courier Prime,monospace" font-weight="700" text-anchor="middle">Del</text>
  <rect x="14" y="62" width="47" height="44" rx="4" ry="4" fill="#f0ede8" stroke="#9e9a96" stroke-width="1.2"/>
  <text x="37" y="87" font-size="8.5" fill="#1a1a1a" font-family="Courier Prime,monospace" font-weight="normal" text-anchor="middle">`</text>
  <rect x="64" y="62" width="47" height="44" rx="4" ry="4" fill="#f0ede8" stroke="#9e9a96" stroke-width="1.2"/>
  <text x="87" y="87" font-size="8.5" fill="#1a1a1a" font-family="Courier Prime,monospace" font-weight="normal" text-anchor="middle">1</text>
  <rect x="114" y="62" width="47" height="44" rx="4" ry="4" fill="#f0ede8" stroke="#9e9a96" stroke-width="1.2"/>
  <text x="137" y="87" font-size="8.5" fill="#1a1a1a" font-family="Courier Prime,monospace" font-weight="normal" text-anchor="middle">2</text>
  <rect x="164" y="62" width="47" height="44" rx="4" ry="4" fill="#f0ede8" stroke="#9e9a96" stroke-width="1.2"/>
  <text x="187" y="87" font-size="8.5" fill="#1a1a1a" font-family="Courier Prime,monospace" font-weight="normal" text-anchor="middle">3</text>
  <rect x="214" y="62" width="47" height="44" rx="4" ry="4" fill="#f0ede8" stroke="#9e9a96" stroke-width="1.2"/>
  <text x="237" y="87" font-size="8.5" fill="#1a1a1a" font-family="Courier Prime,monospace" font-weight="normal" text-anchor="middle">4</text>
  <rect x="264" y="62" width="47" height="44" rx="4" ry="4" fill="#f0ede8" stroke="#9e9a96" stroke-width="1.2"/>
  <text x="287" y="87" font-size="8.5" fill="#1a1a1a" font-family="Courier Prime,monospace" font-weight="normal" text-anchor="middle">5</text>
  <rect x="314" y="62" width="47" height="44" rx="4" ry="4" fill="#f0ede8" stroke="#9e9a96" stroke-width="1.2"/>
  <text x="337" y="87" font-size="8.5" fill="#1a1a1a" font-family="Courier Prime,monospace" font-weight="normal" text-anchor="middle">6</text>
  <rect x="364" y="62" width="47" height="44" rx="4" ry="4" fill="#f0ede8" stroke="#9e9a96" stroke-width="1.2"/>
  <text x="387" y="87" font-size="8.5" fill="#1a1a1a" font-family="Courier Prime,monospace" font-weight="normal" text-anchor="middle">7</text>
  <rect x="414" y="62" width="47" height="44" rx="4" ry="4" fill="#f0ede8" stroke="#9e9a96" stroke-width="1.2"/>
  <text x="437" y="87" font-size="8.5" fill="#1a1a1a" font-family="Courier Prime,monospace" font-weight="normal" text-anchor="middle">8</text>
  <rect x="464" y="62" width="47" height="44" rx="4" ry="4" fill="#f0ede8" stroke="#9e9a96" stroke-width="1.2"/>
  <text x="487" y="87" font-size="8.5" fill="#1a1a1a" font-family="Courier Prime,monospace" font-weight="normal" text-anchor="middle">9</text>
  <rect x="514" y="62" width="47" height="44" rx="4" ry="4" fill="#f0ede8" stroke="#9e9a96" stroke-width="1.2"/>
  <text x="537" y="87" font-size="8.5" fill="#1a1a1a" font-family="Courier Prime,monospace" font-weight="normal" text-anchor="middle">0</text>
  <rect x="564" y="62" width="47" height="44" rx="4" ry="4" fill="#f0ede8" stroke="#9e9a96" stroke-width="1.2"/>
  <text x="587" y="87" font-size="8.5" fill="#1a1a1a" font-family="Courier Prime,monospace" font-weight="normal" text-anchor="middle">−</text>
  <rect x="614" y="62" width="47" height="44" rx="4" ry="4" fill="#f0ede8" stroke="#9e9a96" stroke-width="1.2"/>
  <text x="637" y="87" font-size="8.5" fill="#1a1a1a" font-family="Courier Prime,monospace" font-weight="normal" text-anchor="middle">=</text>
  <rect x="661" y="62" width="100" height="44" rx="4" ry="4" fill="#d4cfc9" stroke="#9e9a96" stroke-width="1.2"/>
  <text x="711" y="87" font-size="8" fill="#1a1a1a" font-family="Courier Prime,monospace" font-weight="700" text-anchor="middle">Bksp</text>
  <rect x="14" y="110" width="72" height="44" rx="4" ry="4" fill="#d4cfc9" stroke="#9e9a96" stroke-width="1.2"/>
  <text x="50" y="135" font-size="8" fill="#1a1a1a" font-family="Courier Prime,monospace" font-weight="700" text-anchor="middle">Tab</text>
  <rect x="89" y="110" width="47" height="44" rx="4" ry="4" fill="#f0ede8" stroke="#9e9a96" stroke-width="1.2"/>
  <text x="112" y="135" font-size="8.5" fill="#1a1a1a" font-family="Courier Prime,monospace" font-weight="normal" text-anchor="middle">Q</text>
  <rect x="139" y="110" width="47" height="44" rx="4" ry="4" fill="#f0ede8" stroke="#9e9a96" stroke-width="1.2"/>
  <text x="162" y="135" font-size="8.5" fill="#1a1a1a" font-family="Courier Prime,monospace" font-weight="normal" text-anchor="middle">W</text>
  <rect x="189" y="110" width="47" height="44" rx="4" ry="4" fill="#f0ede8" stroke="#9e9a96" stroke-width="1.2"/>
  <text x="212" y="135" font-size="8.5" fill="#1a1a1a" font-family="Courier Prime,monospace" font-weight="normal" text-anchor="middle">E</text>
  <rect x="239" y="110" width="47" height="44" rx="4" ry="4" fill="#f0ede8" stroke="#9e9a96" stroke-width="1.2"/>
  <text x="262" y="135" font-size="8.5" fill="#1a1a1a" font-family="Courier Prime,monospace" font-weight="normal" text-anchor="middle">R</text>
  <rect x="289" y="110" width="47" height="44" rx="4" ry="4" fill="#f0ede8" stroke="#9e9a96" stroke-width="1.2"/>
  <text x="312" y="135" font-size="8.5" fill="#1a1a1a" font-family="Courier Prime,monospace" font-weight="normal" text-anchor="middle">T</text>
  <rect x="339" y="110" width="47" height="44" rx="4" ry="4" fill="#f0ede8" stroke="#9e9a96" stroke-width="1.2"/>
  <text x="362" y="135" font-size="8.5" fill="#1a1a1a" font-family="Courier Prime,monospace" font-weight="normal" text-anchor="middle">Y</text>
  <rect x="389" y="110" width="47" height="44" rx="4" ry="4" fill="#f0ede8" stroke="#9e9a96" stroke-width="1.2"/>
  <text x="412" y="135" font-size="8.5" fill="#1a1a1a" font-family="Courier Prime,monospace" font-weight="normal" text-anchor="middle">U</text>
  <rect x="439" y="110" width="47" height="44" rx="4" ry="4" fill="#f0ede8" stroke="#9e9a96" stroke-width="1.2"/>
  <text x="462" y="135" font-size="8.5" fill="#1a1a1a" font-family="Courier Prime,monospace" font-weight="normal" text-anchor="middle">I</text>
  <rect x="489" y="110" width="47" height="44" rx="4" ry="4" fill="#f0ede8" stroke="#9e9a96" stroke-width="1.2"/>
  <text x="512" y="135" font-size="8.5" fill="#1a1a1a" font-family="Courier Prime,monospace" font-weight="normal" text-anchor="middle">O</text>
  <rect x="539" y="110" width="47" height="44" rx="4" ry="4" fill="#f0ede8" stroke="#9e9a96" stroke-width="1.2"/>
  <text x="562" y="135" font-size="8.5" fill="#1a1a1a" font-family="Courier Prime,monospace" font-weight="normal" text-anchor="middle">P</text>
  <rect x="589" y="110" width="47" height="44" rx="4" ry="4" fill="#f0ede8" stroke="#9e9a96" stroke-width="1.2"/>
  <text x="612" y="135" font-size="8.5" fill="#1a1a1a" font-family="Courier Prime,monospace" font-weight="normal" text-anchor="middle">[</text>
  <rect x="639" y="110" width="47" height="44" rx="4" ry="4" fill="#f0ede8" stroke="#9e9a96" stroke-width="1.2"/>
  <text x="662" y="135" font-size="8.5" fill="#1a1a1a" font-family="Courier Prime,monospace" font-weight="normal" text-anchor="middle">]</text>
  <rect x="686" y="110" width="75" height="44" rx="4" ry="4" fill="#f0ede8" stroke="#9e9a96" stroke-width="1.2"/>
  <text x="723" y="135" font-size="8" fill="#1a1a1a" font-family="Courier Prime,monospace" font-weight="normal" text-anchor="middle">\|</text>
  <rect x="14" y="158" width="84" height="44" rx="4" ry="4" fill="#d4cfc9" stroke="#9e9a96" stroke-width="1.2"/>
  <text x="56" y="183" font-size="7.5" fill="#1a1a1a" font-family="Courier Prime,monospace" font-weight="700" text-anchor="middle">Caps Lk</text>
  <rect x="101" y="158" width="47" height="44" rx="4" ry="4" fill="#f0ede8" stroke="#9e9a96" stroke-width="1.2"/>
  <text x="124" y="183" font-size="8.5" fill="#1a1a1a" font-family="Courier Prime,monospace" font-weight="normal" text-anchor="middle">A</text>
  <rect x="151" y="158" width="47" height="44" rx="4" ry="4" fill="#f0ede8" stroke="#9e9a96" stroke-width="1.2"/>
  <text x="174" y="183" font-size="8.5" fill="#1a1a1a" font-family="Courier Prime,monospace" font-weight="normal" text-anchor="middle">S</text>
  <rect x="201" y="158" width="47" height="44" rx="4" ry="4" fill="#f0ede8" stroke="#9e9a96" stroke-width="1.2"/>
  <text x="224" y="183" font-size="8.5" fill="#1a1a1a" font-family="Courier Prime,monospace" font-weight="normal" text-anchor="middle">D</text>
  <rect x="251" y="158" width="47" height="44" rx="4" ry="4" fill="#f0ede8" stroke="#9e9a96" stroke-width="1.2"/>
  <text x="274" y="183" font-size="8.5" fill="#1a1a1a" font-family="Courier Prime,monospace" font-weight="normal" text-anchor="middle">F</text>
  <rect x="301" y="158" width="47" height="44" rx="4" ry="4" fill="#f0ede8" stroke="#9e9a96" stroke-width="1.2"/>
  <text x="324" y="183" font-size="8.5" fill="#1a1a1a" font-family="Courier Prime,monospace" font-weight="normal" text-anchor="middle">G</text>
  <rect x="351" y="158" width="47" height="44" rx="4" ry="4" fill="#f0ede8" stroke="#9e9a96" stroke-width="1.2"/>
  <text x="374" y="183" font-size="8.5" fill="#1a1a1a" font-family="Courier Prime,monospace" font-weight="normal" text-anchor="middle">H</text>
  <rect x="401" y="158" width="47" height="44" rx="4" ry="4" fill="#f0ede8" stroke="#9e9a96" stroke-width="1.2"/>
  <text x="424" y="183" font-size="8.5" fill="#1a1a1a" font-family="Courier Prime,monospace" font-weight="normal" text-anchor="middle">J</text>
  <rect x="451" y="158" width="47" height="44" rx="4" ry="4" fill="#f0ede8" stroke="#9e9a96" stroke-width="1.2"/>
  <text x="474" y="183" font-size="8.5" fill="#1a1a1a" font-family="Courier Prime,monospace" font-weight="normal" text-anchor="middle">K</text>
  <rect x="501" y="158" width="47" height="44" rx="4" ry="4" fill="#f0ede8" stroke="#9e9a96" stroke-width="1.2"/>
  <text x="524" y="183" font-size="8.5" fill="#1a1a1a" font-family="Courier Prime,monospace" font-weight="normal" text-anchor="middle">L</text>
  <rect x="551" y="158" width="47" height="44" rx="4" ry="4" fill="#f0ede8" stroke="#9e9a96" stroke-width="1.2"/>
  <text x="574" y="183" font-size="8.5" fill="#1a1a1a" font-family="Courier Prime,monospace" font-weight="normal" text-anchor="middle">;</text>
  <rect x="601" y="158" width="47" height="44" rx="4" ry="4" fill="#f0ede8" stroke="#9e9a96" stroke-width="1.2"/>
  <text x="624" y="183" font-size="8.5" fill="#1a1a1a" font-family="Courier Prime,monospace" font-weight="normal" text-anchor="middle">'</text>
  <rect x="648" y="158" width="113" height="44" rx="4" ry="4" fill="#d4cfc9" stroke="#9e9a96" stroke-width="1.2"/>
  <text x="704" y="183" font-size="8" fill="#1a1a1a" font-family="Courier Prime,monospace" font-weight="700" text-anchor="middle">Enter</text>
  <rect x="14" y="206" width="110" height="44" rx="4" ry="4" fill="#d4cfc9" stroke="#9e9a96" stroke-width="1.2"/>
  <text x="69" y="231" font-size="8" fill="#1a1a1a" font-family="Courier Prime,monospace" font-weight="700" text-anchor="middle">⇧ Shift</text>
  <rect x="127" y="206" width="47" height="44" rx="4" ry="4" fill="#f0ede8" stroke="#9e9a96" stroke-width="1.2"/>
  <text x="150" y="231" font-size="8.5" fill="#1a1a1a" font-family="Courier Prime,monospace" font-weight="normal" text-anchor="middle">Z</text>
  <rect x="177" y="206" width="47" height="44" rx="4" ry="4" fill="#f0ede8" stroke="#9e9a96" stroke-width="1.2"/>
  <text x="200" y="231" font-size="8.5" fill="#1a1a1a" font-family="Courier Prime,monospace" font-weight="normal" text-anchor="middle">X</text>
  <rect x="227" y="206" width="47" height="44" rx="4" ry="4" fill="#f0ede8" stroke="#9e9a96" stroke-width="1.2"/>
  <text x="250" y="231" font-size="8.5" fill="#1a1a1a" font-family="Courier Prime,monospace" font-weight="normal" text-anchor="middle">C</text>
  <rect x="277" y="206" width="47" height="44" rx="4" ry="4" fill="#f0ede8" stroke="#9e9a96" stroke-width="1.2"/>
  <text x="300" y="231" font-size="8.5" fill="#1a1a1a" font-family="Courier Prime,monospace" font-weight="normal" text-anchor="middle">V</text>
  <rect x="327" y="206" width="47" height="44" rx="4" ry="4" fill="#f0ede8" stroke="#9e9a96" stroke-width="1.2"/>
  <text x="350" y="231" font-size="8.5" fill="#1a1a1a" font-family="Courier Prime,monospace" font-weight="normal" text-anchor="middle">B</text>
  <rect x="377" y="206" width="47" height="44" rx="4" ry="4" fill="#f0ede8" stroke="#9e9a96" stroke-width="1.2"/>
  <text x="400" y="231" font-size="8.5" fill="#1a1a1a" font-family="Courier Prime,monospace" font-weight="normal" text-anchor="middle">N</text>
  <rect x="427" y="206" width="47" height="44" rx="4" ry="4" fill="#f0ede8" stroke="#9e9a96" stroke-width="1.2"/>
  <text x="450" y="231" font-size="8.5" fill="#1a1a1a" font-family="Courier Prime,monospace" font-weight="normal" text-anchor="middle">M</text>
  <rect x="477" y="206" width="47" height="44" rx="4" ry="4" fill="#f0ede8" stroke="#9e9a96" stroke-width="1.2"/>
  <text x="500" y="231" font-size="8.5" fill="#1a1a1a" font-family="Courier Prime,monospace" font-weight="normal" text-anchor="middle">,</text>
  <rect x="527" y="206" width="47" height="44" rx="4" ry="4" fill="#f0ede8" stroke="#9e9a96" stroke-width="1.2"/>
  <text x="550" y="231" font-size="8.5" fill="#1a1a1a" font-family="Courier Prime,monospace" font-weight="normal" text-anchor="middle">.</text>
  <rect x="577" y="206" width="47" height="44" rx="4" ry="4" fill="#f0ede8" stroke="#9e9a96" stroke-width="1.2"/>
  <text x="600" y="231" font-size="8.5" fill="#1a1a1a" font-family="Courier Prime,monospace" font-weight="normal" text-anchor="middle">/</text>
  <rect x="627" y="206" width="84" height="44" rx="4" ry="4" fill="#d4cfc9" stroke="#9e9a96" stroke-width="1.2"/>
  <text x="669" y="231" font-size="8" fill="#1a1a1a" font-family="Courier Prime,monospace" font-weight="700" text-anchor="middle">⇧ Shift</text>
  <rect x="714" y="206" width="47" height="44" rx="4" ry="4" fill="#e8e4df" stroke="#c0392b" stroke-width="1.2"/>
  <text x="737" y="231" font-size="12" fill="#1a1a1a" font-family="Courier Prime,monospace" font-weight="700" text-anchor="middle">↑</text>
  <rect x="14" y="254" width="60" height="44" rx="4" ry="4" fill="#d4cfc9" stroke="#9e9a96" stroke-width="1.2"/>
  <text x="44" y="279" font-size="7.5" fill="#1a1a1a" font-family="Courier Prime,monospace" font-weight="700" text-anchor="middle">Ctrl</text>
  <rect x="77" y="254" width="60" height="44" rx="4" ry="4" fill="#d4cfc9" stroke="#9e9a96" stroke-width="1.2"/>
  <text x="107" y="279" font-size="7.5" fill="#1a1a1a" font-family="Courier Prime,monospace" font-weight="700" text-anchor="middle">Win</text>
  <rect x="140" y="254" width="60" height="44" rx="4" ry="4" fill="#d4cfc9" stroke="#9e9a96" stroke-width="1.2"/>
  <text x="170" y="279" font-size="7.5" fill="#1a1a1a" font-family="Courier Prime,monospace" font-weight="700" text-anchor="middle">Alt</text>
  <rect x="203" y="254" width="279" height="44" rx="4" ry="4" fill="#ebe8e3" stroke="#9e9a96" stroke-width="1.2"/>
  <text x="342" y="279" font-size="8.5" fill="#1a1a1a" font-family="Courier Prime,monospace" font-weight="normal" text-anchor="middle"></text>
  <rect x="485" y="254" width="60" height="44" rx="4" ry="4" fill="#d4cfc9" stroke="#9e9a96" stroke-width="1.2"/>
  <text x="515" y="279" font-size="7.5" fill="#1a1a1a" font-family="Courier Prime,monospace" font-weight="700" text-anchor="middle">Alt</text>
  <rect x="548" y="254" width="60" height="44" rx="4" ry="4" fill="#cdc8c2" stroke="#6b6560" stroke-width="1.2"/>
  <text x="578" y="279" font-size="7.5" fill="#1a1a1a" font-family="Courier Prime,monospace" font-weight="700" text-anchor="middle">Fn</text>
  <rect x="611" y="254" width="47" height="44" rx="4" ry="4" fill="#e8e4df" stroke="#c0392b" stroke-width="1.2"/>
  <text x="634" y="279" font-size="12" fill="#1a1a1a" font-family="Courier Prime,monospace" font-weight="700" text-anchor="middle">←</text>
  <rect x="661" y="254" width="47" height="44" rx="4" ry="4" fill="#e8e4df" stroke="#c0392b" stroke-width="1.2"/>
  <text x="684" y="279" font-size="12" fill="#1a1a1a" font-family="Courier Prime,monospace" font-weight="700" text-anchor="middle">↓</text>
  <rect x="711" y="254" width="50" height="44" rx="4" ry="4" fill="#e8e4df" stroke="#c0392b" stroke-width="1.2"/>
  <text x="736" y="279" font-size="12" fill="#1a1a1a" font-family="Courier Prime,monospace" font-weight="700" text-anchor="middle">→</text>
</svg>