<svg xmlns="http://www.w3.org/2000/svg" viewBox="0 0 714 318" width="714" height="318" role="img" aria-label="Great Writer 75 keyboard layout">
  <rect x="2" y="2" width="710" height="314" rx="8" ry="8" fill="#c8c4bf" stroke="#9e9a96" stroke-width="1.5"/>
  <rect x="12" y="296" width="9" height="7" rx="2" fill="#dedad4" stroke="#9e9a96" stroke-width="1"/>  <text x="25" y="304" font-size="6.5" fill="#6b6560" font-family="Courier Prime,monospace">Fn keys</text>  <rect x="68" y="296" width="9" height="7" rx="2" fill="#e8e4df" stroke="#c0392b" stroke-width="1.2"/>  <text x="81" y="304" font-size="6.5" fill="#6b6560" font-family="Courier Prime,monospace">Nav / Arrows</text>  <rect x="156" y="296" width="9" height="7" rx="2" fill="#cdc8c2" stroke="#6b6560" stroke-width="1"/>  <text x="169" y="304" font-size="6.5" fill="#6b6560" font-family="Courier Prime,monospace">Special</text>  <text x="702" y="304" font-size="6.5" fill="#6b6560" font-family="Courier Prime,monospace" text-anchor="end" letter-spacing="1">GW-75 · 75% · 84 KEYS</text>
  <rect x="12" y="12" width="43" height="42" rx="3" ry="3" fill="#cdc8c2" stroke="#6b6560" stroke-width="1.2"/>
  <text x="33" y="36" font-size="7.5" fill="#1a1a1a" font-family="Courier Prime,monospace" font-weight="700" text-anchor="middle">Esc</text>
  <rect x="72" y="12" width="43" height="42" rx="3" ry="3" fill="#dedad4" stroke="#9e9a96" stroke-width="1.2"/>
  <text x="76" y="20" font-size="5.5" fill="#c0392b" font-family="Courier Prime,monospace" font-weight="700">mute</text>
  <text x="93" y="48" font-size="7.5" fill="#1a1a1a" font-family="Courier Prime,monospace" font-weight="normal" text-anchor="middle">F1</text>
  <rect x="118" y="12" width="43" height="42" rx="3" ry="3" fill="#dedad4" stroke="#9e9a96" stroke-width="1.2"/>
  <text x="122" y="20" font-size="5.5" fill="#c0392b" font-family="Courier Prime,monospace" font-weight="700">vol−</text>
  <text x="139" y="48" font-size="7.5" fill="#1a1a1a" font-family="Courier Prime,monospace" font-weight="normal" text-anchor="middle">F2</text>
  <rect x="164" y="12" width="43" height="42" rx="3" ry="3" fill="#dedad4" stroke="#9e9a96" stroke-width="1.2"/>
  <text x="168" y="20" font-size="5.5" fill="#c0392b" font-family="Courier Prime,monospace" font-weight="700">vol+</text>
  <text x="185" y="48" font-size="7.5" fill="#1a1a1a" font-family="Courier Prime,monospace" font-weight="normal" text-anchor="middle">F3</text>
  <rect x="210" y="12" width="43" height="42" rx="3" ry="3" fill="#dedad4" stroke="#9e9a96" stroke-width="1.2"/>
  <text x="214" y="20" font-size="5.5" fill="#c0392b" font-family="Courier Prime,monospace" font-weight="700">prev</text>
  <text x="231" y="48" font-size="7.5" fill="#1a1a1a" font-family="Courier Prime,monospace" font-weight="normal" text-anchor="middle">F4</text>
  <rect x="270" y="12" width="43" height="42" rx="3" ry="3" fill="#dedad4" stroke="#9e9a96" stroke-width="1.2"/>
  <text x="274" y="20" font-size="5.5" fill="#c0392b" font-family="Courier Prime,monospace" font-weight="700">play</text>
  <text x="291" y="48" font-size="7.5" fill="#1a1a1a" font-family="Courier Prime,monospace" font-weight="normal" text-anchor="middle">F5</text>
  <rect x="316" y="12" width="43" height="42" rx="3" ry="3" fill="#dedad4" stroke="#9e9a96" stroke-width="1.2"/>
  <text x="320" y="20" font-size="5.5" fill="#c0392b" font-family="Courier Prime,monospace" font-weight="700">next</text>
  <text x="337" y="48" font-size="7.5" fill="#1a1a1a" font-family="Courier Prime,monospace" font-weight="normal" text-anchor="middle">F6</text>
  <rect x="362" y="12" width="43" height="42" rx="3" ry="3" fill="#dedad4" stroke="#9e9a96" stroke-width="1.2"/>
  <text x="366" y="20" font-size="5.5" fill="#c0392b" font-family="Courier Prime,monospace" font-weight="700">brt−</text>
  <text x="383" y="48" font-size="7.5" fill="#1a1a1a" font-family="Courier Prime,monospace" font-weight="normal" text-anchor="middle">F7</text>
  <rect x="408" y="12" width="43" height="42" rx="3" ry="3" fill="#dedad4" stroke="#9e9a96" stroke-width="1.2"/>
  <text x="412" y="20" font-size="5.5" fill="#c0392b" font-family="Courier Prime,monospace" font-weight="700">brt+</text>
  <text x="429" y="48" font-size="7.5" fill="#1a1a1a" font-family="Courier Prime,monospace" font-weight="normal" text-anchor="middle">F8</text>
  <rect x="468" y="12" width="43" height="42" rx="3" ry="3" fill="#dedad4" stroke="#9e9a96" stroke-width="1.2"/>
  <text x="472" y="20" font-size="5.5" fill="#c0392b" font-family="Courier Prime,monospace" font-weight="700">disp</text>
  <text x="489" y="48" font-size="7.5" fill="#1a1a1a" font-family="Courier Prime,monospace" font-weight="normal" text-anchor="middle">F9</text>
  <rect x="514" y="12" width="43" height="42" rx="3" ry="3" fill="#dedad4" stroke="#9e9a96" stroke-width="1.2"/>
  <text x="518" y="20" font-size="5.5" fill="#c0392b" font-family="Courier Prime,monospace" font-weight="700">task</text>
  <text x="535" y="48" font-size="7.5" fill="#1a1a1a" font-family="Courier Prime,monospace" font-weight="normal" text-anchor="middle">F10</text>
  <rect x="560" y="12" width="43" height="42" rx="3" ry="3" fill="#dedad4" stroke="#9e9a96" stroke-width="1.2"/>
  <text x="564" y="20" font-size="5.5" fill="#c0392b" font-family="Courier Prime,monospace" font-weight="700">file</text>
  <text x="581" y="48" font-size="7.5" fill="#1a1a1a" font-family="Courier Prime,monospace" font-weight="normal" text-anchor="middle">F11</text>
  <rect x="606" y="12" width="43" height="42" rx="3" ry="3" fill="#dedad4" stroke="#9e9a96" stroke-width="1.2"/>
  <text x="610" y="20" font-size="5.5" fill="#c0392b" font-family="Courier Prime,monospace" font-weight="700">desk</text>
  <text x="627" y="48" font-size="7.5" fill="#1a1a1a" font-family="Courier Prime,monospace" font-weight="normal" text-anchor="middle">F12</text>
  <rect x="649" y="12" width="53" height="42" rx="3" ry="3" fill="#cdc8c2" stroke="#6b6560" stroke-width="1.2"/>
  <text x="675" y="36" font-size="7.5" fill="#1a1a1a" font-family="Courier Prime,monospace" font-weight="700" text-anchor="middle">Del</text>
  <rect x="12" y="58" width="43" height="42" rx="3" ry="3" fill="#f0ede8" stroke="#9e9a96" stroke-width="1.2"/>
  <text x="33" y="82" font-size="8" fill="#1a1a1a" font-family="Courier Prime,monospace" font-weight="normal" text-anchor="middle">`</text>
  <rect x="58" y="58" width="43" height="42" rx="3" ry="3" fill="#f0ede8" stroke="#9e9a96" stroke-width="1.2"/>
  <text x="79" y="82" font-size="8" fill="#1a1a1a" font-family="Courier Prime,monospace" font-weight="normal" text-anchor="middle">1</text>
  <rect x="104" y="58" width="43" height="42" rx="3" ry="3" fill="#f0ede8" stroke="#9e9a96" stroke-width="1.2"/>
  <text x="125" y="82" font-size="8" fill="#1a1a1a" font-family="Courier Prime,monospace" font-weight="normal" text-anchor="middle">2</text>
  <rect x="150" y="58" width="43" height="42" rx="3" ry="3" fill="#f0ede8" stroke="#9e9a96" stroke-width="1.2"/>
  <text x="171" y="82" font-size="8" fill="#1a1a1a" font-family="Courier Prime,monospace" font-weight="normal" text-anchor="middle">3</text>
  <rect x="196" y="58" width="43" height="42" rx="3" ry="3" fill="#f0ede8" stroke="#9e9a96" stroke-width="1.2"/>
  <text x="217" y="82" font-size="8" fill="#1a1a1a" font-family="Courier Prime,monospace" font-weight="normal" text-anchor="middle">4</text>
  <rect x="242" y="58" width="43" height="42" rx="3" ry="3" fill="#f0ede8" stroke="#9e9a96" stroke-width="1.2"/>
  <text x="263" y="82" font-size="8" fill="#1a1a1a" font-family="Courier Prime,monospace" font-weight="normal" text-anchor="middle">5</text>
  <rect x="288" y="58" width="43" height="42" rx="3" ry="3" fill="#f0ede8" stroke="#9e9a96" stroke-width="1.2"/>
  <text x="309" y="82" font-size="8" fill="#1a1a1a" font-family="Courier Prime,monospace" font-weight="normal" text-anchor="middle">6</text>
  <rect x="334" y="58" width="43" height="42" rx="3" ry="3" fill="#f0ede8" stroke="#9e9a96" stroke-width="1.2"/>
  <text x="355" y="82" font-size="8" fill="#1a1a1a" font-family="Courier Prime,monospace" font-weight="normal" text-anchor="middle">7</text>
  <rect x="380" y="58" width="43" height="42" rx="3" ry="3" fill="#f0ede8" stroke="#9e9a96" stroke-width="1.2"/>
  <text x="401" y="82" font-size="8" fill="#1a1a1a" font-family="Courier Prime,monospace" font-weight="normal" text-anchor="middle">8</text>
  <rect x="426" y="58" width="43" height="42" rx="3" ry="3" fill="#f0ede8" stroke="#9e9a96" stroke-width="1.2"/>
  <text x="447" y="82" font-size="8" fill="#1a1a1a" font-family="Courier Prime,monospace" font-weight="normal" text-anchor="middle">9</text>
  <rect x="472" y="58" width="43" height="42" rx="3" ry="3" fill="#f0ede8" stroke="#9e9a96" stroke-width="1.2"/>
  <text x="493" y="82" font-size="8" fill="#1a1a1a" font-family="Courier Prime,monospace" font-weight="normal" text-anchor="middle">0</text>
  <rect x="518" y="58" width="43" height="42" rx="3" ry="3" fill="#f0ede8" stroke="#9e9a96" stroke-width="1.2"/>
  <text x="539" y="82" font-size="8" fill="#1a1a1a" font-family="Courier Prime,monospace" font-weight="normal" text-anchor="middle">−</text>
  <rect x="564" y="58" width="43" height="42" rx="3" ry="3" fill="#f0ede8" stroke="#9e9a96" stroke-width="1.2"/>
  <text x="585" y="82" font-size="8" fill="#1a1a1a" font-family="Courier Prime,monospace" font-weight="normal" text-anchor="middle">=</text>
  <rect x="607" y="58" width="46" height="42" rx="3" ry="3" fill="#d4cfc9" stroke="#9e9a96" stroke-width="1.2"/>
  <text x="630" y="82" font-size="7.5" fill="#1a1a1a" font-family="Courier Prime,monospace" font-weight="700" text-anchor="middle">Bksp</text>
  <rect x="659" y="58" width="43" height="42" rx="3" ry="3" fill="#e8e4df" stroke="#c0392b" stroke-width="1.2"/>
  <text x="680" y="82" font-size="7" fill="#1a1a1a" font-family="Courier Prime,monospace" font-weight="700" text-anchor="middle">Home</text>
  <rect x="12" y="104" width="66" height="42" rx="3" ry="3" fill="#d4cfc9" stroke="#9e9a96" stroke-width="1.2"/>
  <text x="45" y="128" font-size="8" fill="#1a1a1a" font-family="Courier Prime,monospace" font-weight="700" text-anchor="middle">Tab</text>
  <rect x="81" y="104" width="43" height="42" rx="3" ry="3" fill="#f0ede8" stroke="#9e9a96" stroke-width="1.2"/>
  <text x="102" y="128" font-size="8" fill="#1a1a1a" font-family="Courier Prime,monospace" font-weight="normal" text-anchor="middle">Q</text>
  <rect x="127" y="104" width="43" height="42" rx="3" ry="3" fill="#f0ede8" stroke="#9e9a96" stroke-width="1.2"/>
  <text x="148" y="128" font-size="8" fill="#1a1a1a" font-family="Courier Prime,monospace" font-weight="normal" text-anchor="middle">W</text>
  <rect x="173" y="104" width="43" height="42" rx="3" ry="3" fill="#f0ede8" stroke="#9e9a96" stroke-width="1.2"/>
  <text x="194" y="128" font-size="8" fill="#1a1a1a" font-family="Courier Prime,monospace" font-weight="normal" text-anchor="middle">E</text>
  <rect x="219" y="104" width="43" height="42" rx="3" ry="3" fill="#f0ede8" stroke="#9e9a96" stroke-width="1.2"/>
  <text x="240" y="128" font-size="8" fill="#1a1a1a" font-family="Courier Prime,monospace" font-weight="normal" text-anchor="middle">R</text>
  <rect x="265" y="104" width="43" height="42" rx="3" ry="3" fill="#f0ede8" stroke="#9e9a96" stroke-width="1.2"/>
  <text x="286" y="128" font-size="8" fill="#1a1a1a" font-family="Courier Prime,monospace" font-weight="normal" text-anchor="middle">T</text>
  <rect x="311" y="104" width="43" height="42" rx="3" ry="3" fill="#f0ede8" stroke="#9e9a96" stroke-width="1.2"/>
  <text x="332" y="128" font-size="8" fill="#1a1a1a" font-family="Courier Prime,monospace" font-weight="normal" text-anchor="middle">Y</text>
  <rect x="357" y="104" width="43" height="42" rx="3" ry="3" fill="#f0ede8" stroke="#9e9a96" stroke-width="1.2"/>
  <text x="378" y="128" font-size="8" fill="#1a1a1a" font-family="Courier Prime,monospace" font-weight="normal" text-anchor="middle">U</text>
  <rect x="403" y="104" width="43" height="42" rx="3" ry="3" fill="#f0ede8" stroke="#9e9a96" stroke-width="1.2"/>
  <text x="424" y="128" font-size="8" fill="#1a1a1a" font-family="Courier Prime,monospace" font-weight="normal" text-anchor="middle">I</text>
  <rect x="449" y="104" width="43" height="42" rx="3" ry="3" fill="#f0ede8" stroke="#9e9a96" stroke-width="1.2"/>
  <text x="470" y="128" font-size="8" fill="#1a1a1a" font-family="Courier Prime,monospace" font-weight="normal" text-anchor="middle">O</text>
  <rect x="495" y="104" width="43" height="42" rx="3" ry="3" fill="#f0ede8" stroke="#9e9a96" stroke-width="1.2"/>
  <text x="516" y="128" font-size="8" fill="#1a1a1a" font-family="Courier Prime,monospace" font-weight="normal" text-anchor="middle">P</text>
  <rect x="541" y="104" width="43" height="42" rx="3" ry="3" fill="#f0ede8" stroke="#9e9a96" stroke-width="1.2"/>
  <text x="562" y="128" font-size="8" fill="#1a1a1a" font-family="Courier Prime,monospace" font-weight="normal" text-anchor="middle">[</text>
  <rect x="587" y="104" width="43" height="42" rx="3" ry="3" fill="#f0ede8" stroke="#9e9a96" stroke-width="1.2"/>
  <text x="608" y="128" font-size="8" fill="#1a1a1a" font-family="Courier Prime,monospace" font-weight="normal" text-anchor="middle">]</text>
  <rect x="630" y="104" width="23" height="42" rx="3" ry="3" fill="#f0ede8" stroke="#9e9a96" stroke-width="1.2"/>
  <text x="641" y="128" font-size="7.5" fill="#1a1a1a" font-family="Courier Prime,monospace" font-weight="normal" text-anchor="middle">\|</text>
  <rect x="659" y="104" width="43" height="42" rx="3" ry="3" fill="#e8e4df" stroke="#c0392b" stroke-width="1.2"/>
  <text x="680" y="128" font-size="7" fill="#1a1a1a" font-family="Courier Prime,monospace" font-weight="700" text-anchor="middle">End</text>
  <rect x="12" y="150" width="78" height="42" rx="3" ry="3" fill="#d4cfc9" stroke="#9e9a96" stroke-width="1.2"/>
  <text x="51" y="174" font-size="7.5" fill="#1a1a1a" font-family="Courier Prime,monospace" font-weight="700" text-anchor="middle">Caps</text>
  <rect x="93" y="150" width="43" height="42" rx="3" ry="3" fill="#f0ede8" stroke="#9e9a96" stroke-width="1.2"/>
  <text x="114" y="174" font-size="8" fill="#1a1a1a" font-family="Courier Prime,monospace" font-weight="normal" text-anchor="middle">A</text>
  <rect x="139" y="150" width="43" height="42" rx="3" ry="3" fill="#f0ede8" stroke="#9e9a96" stroke-width="1.2"/>
  <text x="160" y="174" font-size="8" fill="#1a1a1a" font-family="Courier Prime,monospace" font-weight="normal" text-anchor="middle">S</text>
  <rect x="185" y="150" width="43" height="42" rx="3" ry="3" fill="#f0ede8" stroke="#9e9a96" stroke-width="1.2"/>
  <text x="206" y="174" font-size="8" fill="#1a1a1a" font-family="Courier Prime,monospace" font-weight="normal" text-anchor="middle">D</text>
  <rect x="231" y="150" width="43" height="42" rx="3" ry="3" fill="#f0ede8" stroke="#9e9a96" stroke-width="1.2"/>
  <text x="252" y="174" font-size="8" fill="#1a1a1a" font-family="Courier Prime,monospace" font-weight="normal" text-anchor="middle">F</text>
  <rect x="277" y="150" width="43" height="42" rx="3" ry="3" fill="#f0ede8" stroke="#9e9a96" stroke-width="1.2"/>
  <text x="298" y="174" font-size="8" fill="#1a1a1a" font-family="Courier Prime,monospace" font-weight="normal" text-anchor="middle">G</text>
  <rect x="323" y="150" width="43" height="42" rx="3" ry="3" fill="#f0ede8" stroke="#9e9a96" stroke-width="1.2"/>
  <text x="344" y="174" font-size="8" fill="#1a1a1a" font-family="Courier Prime,monospace" font-weight="normal" text-anchor="middle">H</text>
  <rect x="369" y="150" width="43" height="42" rx="3" ry="3" fill="#f0ede8" stroke="#9e9a96" stroke-width="1.2"/>
  <text x="390" y="174" font-size="8" fill="#1a1a1a" font-family="Courier Prime,monospace" font-weight="normal" text-anchor="middle">J</text>
  <rect x="415" y="150" width="43" height="42" rx="3" ry="3" fill="#f0ede8" stroke="#9e9a96" stroke-width="1.2"/>
  <text x="436" y="174" font-size="8" fill="#1a1a1a" font-family="Courier Prime,monospace" font-weight="normal" text-anchor="middle">K</text>
  <rect x="461" y="150" width="43" height="42" rx="3" ry="3" fill="#f0ede8" stroke="#9e9a96" stroke-width="1.2"/>
  <text x="482" y="174" font-size="8" fill="#1a1a1a" font-family="Courier Prime,monospace" font-weight="normal" text-anchor="middle">L</text>
  <rect x="507" y="150" width="43" height="42" rx="3" ry="3" fill="#f0ede8" stroke="#9e9a96" stroke-width="1.2"/>
  <text x="528" y="174" font-size="8" fill="#1a1a1a" font-family="Courier Prime,monospace" font-weight="normal" text-anchor="middle">;</text>
  <rect x="553" y="150" width="43" height="42" rx="3" ry="3" fill="#f0ede8" stroke="#9e9a96" stroke-width="1.2"/>
  <text x="574" y="174" font-size="8" fill="#1a1a1a" font-family="Courier Prime,monospace" font-weight="normal" text-anchor="middle">'</text>
  <rect x="596" y="150" width="57" height="42" rx="3" ry="3" fill="#d4cfc9" stroke="#9e9a96" stroke-width="1.2"/>
  <text x="624" y="174" font-size="7.5" fill="#1a1a1a" font-family="Courier Prime,monospace" font-weight="700" text-anchor="middle">Enter</text>
  <rect x="659" y="150" width="43" height="42" rx="3" ry="3" fill="#e8e4df" stroke="#c0392b" stroke-width="1.2"/>
  <text x="680" y="174" font-size="7" fill="#1a1a1a" font-family="Courier Prime,monospace" font-weight="700" text-anchor="middle">PgUp</text>
  <rect x="12" y="196" width="100" height="42" rx="3" ry="3" fill="#d4cfc9" stroke="#9e9a96" stroke-width="1.2"/>
  <text x="62" y="220" font-size="7.5" fill="#1a1a1a" font-family="Courier Prime,monospace" font-weight="700" text-anchor="middle">⇧ Shift</text>
  <rect x="115" y="196" width="43" height="42" rx="3" ry="3" fill="#f0ede8" stroke="#9e9a96" stroke-width="1.2"/>
  <text x="136" y="220" font-size="8" fill="#1a1a1a" font-family="Courier Prime,monospace" font-weight="normal" text-anchor="middle">Z</text>
  <rect x="161" y="196" width="43" height="42" rx="3" ry="3" fill="#f0ede8" stroke="#9e9a96" stroke-width="1.2"/>
  <text x="182" y="220" font-size="8" fill="#1a1a1a" font-family="Courier Prime,monospace" font-weight="normal" text-anchor="middle">X</text>
  <rect x="207" y="196" width="43" height="42" rx="3" ry="3" fill="#f0ede8" stroke="#9e9a96" stroke-width="1.2"/>
  <text x="228" y="220" font-size="8" fill="#1a1a1a" font-family="Courier Prime,monospace" font-weight="normal" text-anchor="middle">C</text>
  <rect x="253" y="196" width="43" height="42" rx="3" ry="3" fill="#f0ede8" stroke="#9e9a96" stroke-width="1.2"/>
  <text x="274" y="220" font-size="8" fill="#1a1a1a" font-family="Courier Prime,monospace" font-weight="normal" text-anchor="middle">V</text>
  <rect x="299" y="196" width="43" height="42" rx="3" ry="3" fill="#f0ede8" stroke="#9e9a96" stroke-width="1.2"/>
  <text x="320" y="220" font-size="8" fill="#1a1a1a" font-family="Courier Prime,monospace" font-weight="normal" text-anchor="middle">B</text>
  <rect x="345" y="196" width="43" height="42" rx="3" ry="3" fill="#f0ede8" stroke="#9e9a96" stroke-width="1.2"/>
  <text x="366" y="220" font-size="8" fill="#1a1a1a" font-family="Courier Prime,monospace" font-weight="normal" text-anchor="middle">N</text>
  <rect x="391" y="196" width="43" height="42" rx="3" ry="3" fill="#f0ede8" stroke="#9e9a96" stroke-width="1.2"/>
  <text x="412" y="220" font-size="8" fill="#1a1a1a" font-family="Courier Prime,monospace" font-weight="normal" text-anchor="middle">M</text>
  <rect x="437" y="196" width="43" height="42" rx="3" ry="3" fill="#f0ede8" stroke="#9e9a96" stroke-width="1.2"/>
  <text x="458" y="220" font-size="8" fill="#1a1a1a" font-family="Courier Prime,monospace" font-weight="normal" text-anchor="middle">,</text>
  <rect x="483" y="196" width="43" height="42" rx="3" ry="3" fill="#f0ede8" stroke="#9e9a96" stroke-width="1.2"/>
  <text x="504" y="220" font-size="8" fill="#1a1a1a" font-family="Courier Prime,monospace" font-weight="normal" text-anchor="middle">.</text>
  <rect x="529" y="196" width="43" height="42" rx="3" ry="3" fill="#f0ede8" stroke="#9e9a96" stroke-width="1.2"/>
  <text x="550" y="220" font-size="8" fill="#1a1a1a" font-family="Courier Prime,monospace" font-weight="normal" text-anchor="middle">/</text>
  <rect x="572" y="196" width="32" height="42" rx="3" ry="3" fill="#d4cfc9" stroke="#9e9a96" stroke-width="1.2"/>
  <text x="588" y="220" font-size="7.5" fill="#1a1a1a" font-family="Courier Prime,monospace" font-weight="700" text-anchor="middle">⇧</text>
  <rect x="610" y="196" width="43" height="42" rx="3" ry="3" fill="#e8e4df" stroke="#c0392b" stroke-width="1.2"/>
  <text x="631" y="220" font-size="12" fill="#1a1a1a" font-family="Courier Prime,monospace" font-weight="700" text-anchor="middle">↑</text>
  <rect x="659" y="196" width="43" height="42" rx="3" ry="3" fill="#e8e4df" stroke="#c0392b" stroke-width="1.2"/>
  <text x="680" y="220" font-size="7" fill="#1a1a1a" font-family="Courier Prime,monospace" font-weight="700" text-anchor="middle">PgDn</text>
  <rect x="12" y="242" width="54" height="42" rx="3" ry="3" fill="#d4cfc9" stroke="#9e9a96" stroke-width="1.2"/>
  <text x="39" y="266" font-size="7" fill="#1a1a1a" font-family="Courier Prime,monospace" font-weight="700" text-anchor="middle">Ctrl</text>
  <rect x="69" y="242" width="54" height="42" rx="3" ry="3" fill="#d4cfc9" stroke="#9e9a96" stroke-width="1.2"/>
  <text x="96" y="266" font-size="7" fill="#1a1a1a" font-family="Courier Prime,monospace" font-weight="700" text-anchor="middle">Win</text>
  <rect x="126" y="242" width="54" height="42" rx="3" ry="3" fill="#d4cfc9" stroke="#9e9a96" stroke-width="1.2"/>
  <text x="153" y="266" font-size="7" fill="#1a1a1a" font-family="Courier Prime,monospace" font-weight="700" text-anchor="middle">Alt</text>
  <rect x="183" y="242" width="307" height="42" rx="3" ry="3" fill="#ebe8e3" stroke="#9e9a96" stroke-width="1.2"/>
  <text x="336" y="266" font-size="8" fill="#1a1a1a" font-family="Courier Prime,monospace" font-weight="normal" text-anchor="middle"></text>
  <rect x="493" y="242" width="54" height="42" rx="3" ry="3" fill="#cdc8c2" stroke="#6b6560" stroke-width="1.2"/>
  <text x="520" y="266" font-size="7" fill="#1a1a1a" font-family="Courier Prime,monospace" font-weight="700" text-anchor="middle">Fn</text>
  <rect x="550" y="242" width="54" height="42" rx="3" ry="3" fill="#d4cfc9" stroke="#9e9a96" stroke-width="1.2"/>
  <text x="577" y="266" font-size="7" fill="#1a1a1a" font-family="Courier Prime,monospace" font-weight="700" text-anchor="middle">Ctrl</text>
  <rect x="607" y="242" width="43" height="42" rx="3" ry="3" fill="#e8e4df" stroke="#c0392b" stroke-width="1.2"/>
  <text x="628" y="266" font-size="12" fill="#1a1a1a" font-family="Courier Prime,monospace" font-weight="700" text-anchor="middle">↓</text>
  <rect x="659" y="242" width="20" height="42" rx="3" ry="3" fill="#e8e4df" stroke="#c0392b" stroke-width="1.2"/>
  <text x="669" y="266" font-size="11" fill="#1a1a1a" font-family="Courier Prime,monospace" font-weight="700" text-anchor="middle">←</text>
  <rect x="682" y="242" width="20" height="42" rx="3" ry="3" fill="#e8e4df" stroke="#c0392b" stroke-width="1.2"/>
  <text x="692" y="266" font-size="11" fill="#1a1a1a" font-family="Courier Prime,monospace" font-weight="700" text-anchor="middle">→</text>
</svg>